<svg xmlns="http://www.w3.org/2000/svg" viewBox="0 0 49.58 49.96"><title>ico-wsp</title><g id="Capa_2" data-name="Capa 2"><g id="OBJECTS"><path d="M36.65,29.87c-.61-.33-3.61-2-4.17-2.18s-1-.35-1.41.26-1.68,2-2.06,2.36-.74.44-1.35.1a17,17,0,0,1-4.88-3.27,18.71,18.71,0,0,1-3.29-4.43c-.34-.64,0-1,.32-1.26s.65-.7,1-1.05a4.27,4.27,0,0,0,.66-1,1.14,1.14,0,0,0,0-1.09c-.14-.32-1.27-3.42-1.74-4.68s-1-1.08-1.36-1.09-.77-.08-1.19-.1a2.28,2.28,0,0,0-1.69.72,7,7,0,0,0-2.37,5.1c-.12,3.06,2,6.09,2.3,6.52s4,7.05,10.26,9.78,6.26,1.89,7.4,1.83,3.73-1.37,4.31-2.8a5.19,5.19,0,0,0,.47-2.94c-.15-.27-.55-.44-1.16-.77ZM25.24,44.6a20.14,20.14,0,0,1-11.15-3.35L6.31,43.74l2.53-7.52a20.25,20.25,0,1,1,16.4,8.38Zm0-44.6A24.34,24.34,0,0,0,4.39,36.91L0,50l13.47-4.31A24.34,24.34,0,1,0,25.24,0Z" style="fill:#e7e8e9;fill-rule:evenodd"/></g></g></svg>