<svg xmlns="http://www.w3.org/2000/svg" xmlns:xlink="http://www.w3.org/1999/xlink" viewBox="0 0 316.46 389.29"><defs><style>.a,.j,.u,.v{fill:none;}.b{isolation:isolate;}.c,.r{fill:#6cafa6;}.c,.n{opacity:0.57;}.c,.n,.s,.v{mix-blend-mode:multiply;}.d{clip-path:url(#a);}.e{fill:#facdba;}.f{fill:#474659;}.g,.o{fill:#fff;}.h{fill:#f6bb91;}.i{fill:#d3d8ff;}.j{stroke:#d3d8ff;stroke-width:0.98px;}.j,.o,.v{stroke-miterlimit:10;}.k{fill:#474d99;}.l{fill:#e97753;}.m{clip-path:url(#b);}.n{fill:#ff797c;}.o{stroke:#69bea7;stroke-width:10.77px;}.p{fill:#69bea7;}.q{clip-path:url(#c);}.s,.v{opacity:0.43;}.t{fill:#452b00;}.u{stroke:#474d99;stroke-linecap:round;stroke-linejoin:round;stroke-width:6.85px;}.v{stroke:#452b00;stroke-width:0.89px;}</style><clipPath id="a" transform="translate(0 -6.71)"><polygon class="a" points="22.58 221.6 319.1 163.72 275.39 0 171.65 4.58 12.84 29.91 0.71 56.76 22.58 221.6"/></clipPath><clipPath id="b" transform="translate(0 -6.71)"><path class="a" d="M175.42,152l-55.94,31.2-19.35-27.73H82.73v-6.65q1.69,0,3.4-.12a24,24,0,0,0,22.73-24v-.38a9.77,9.77,0,0,0,4.29-16.89c2.43-4.2,3.93-18.44,2.14-24.46-2-6.78.27-10.3,3-16.48s-4.45-11.73-38.22-10.83-34.25,8-34.25,8-2.85-3-8.85,0,1.46,32.66.7,37.69c-.67,4.44-3.15,6.64,1,6.42a9.77,9.77,0,0,0,5.58,18.49V129a18.33,18.33,0,0,0,14.4,17.9,83.06,83.06,0,0,0,11.52,1.61H70v6.94H50.35s-11,.65-11,9.13v49.59h60.77v-32.3l14.73,21.53,69.74-35.83Z"/></clipPath><clipPath id="c" transform="translate(0 -6.71)"><path class="a" d="M170.07,124.17l25.24,39.36a11.06,11.06,0,0,0,13.74,4.16L222,162c9.08-4-23.37-16.12-21.3-20.3s1.09-15.36-8.67-16.25-4.83-11.06-4.83-11.06Z"/></clipPath></defs><title>asesores</title><g class="b"><ellipse class="c" cx="190.56" cy="378.61" rx="106.52" ry="10.68"/><g class="d"><path class="e" d="M86.12,148.7c-9.76.46-19.43,0-27.46-1.78A18.33,18.33,0,0,1,44.26,129V102A26.88,26.88,0,0,1,69.7,75.06a141.66,141.66,0,0,1,24.76,1,16.39,16.39,0,0,1,14.39,16.24v32.48A24,24,0,0,1,86.12,148.7Z" transform="translate(0 -6.71)"/><circle class="e" cx="106.7" cy="108.09" r="9.79"/><circle class="e" cx="42.95" cy="109.93" r="9.79"/><ellipse class="f" cx="67.29" cy="104.12" rx="2.75" ry="3.98"/><ellipse class="f" cx="92.92" cy="104.12" rx="2.75" ry="3.98"/><path class="g" d="M68,121.54H92.16s-.85,12.4-11.46,12.4S68,121.54,68,121.54Z" transform="translate(0 -6.71)"/><rect class="h" x="70" y="141.81" width="12.73" height="6.94"/><rect class="g" x="50.35" y="148.75" width="49.78" height="58.72"/><polygon class="i" points="77.6 153.81 67.18 161.39 64.5 148.75 68.95 148.75 77.6 153.81"/><polygon class="i" points="77.6 153.81 86.36 160.77 88.22 148.75 84.16 148.75 77.6 153.81"/><polygon class="e" points="70 148.75 77.6 153.81 82.73 148.75 82.73 141.81 70 141.81 70 148.75"/><path class="i" d="M50.35,155.46s-11,.65-11,9.13v49.59h11Z" transform="translate(0 -6.71)"/><polygon class="i" points="100.13 148.75 119.48 176.48 175.42 145.28 184.6 160.88 114.86 196.71 100.13 175.18 100.13 148.75"/><line class="j" x1="77.6" y1="157.89" x2="77.6" y2="207.47"/><polygon class="g" points="77.6 153.81 67.54 159.92 65.54 148.75 70 148.75 77.6 153.81"/><polygon class="g" points="82.73 148.75 77.6 153.81 85.85 159.92 87.67 148.75 82.73 148.75"/><polygon class="k" points="73.54 156.28 75.24 160.77 80.14 160.77 81.88 156.98 77.6 153.81 73.54 156.28"/><polygon class="k" points="75.24 160.77 71.57 207.47 82.91 207.47 80.14 160.77 75.24 160.77"/><path class="l" d="M80.7,133.93c6.06,0,8.93-4,10.29-7.5H69.69C71.38,129.9,74.64,133.93,80.7,133.93Z" transform="translate(0 -6.71)"/><path class="k" d="M59.23,80s-8,2.71-7.77,13.93,2.72,19.7-2.91,20.49c0,0-1.07-7.78-7.88-6.8s-3.73-1.18-3-6.2S31,66.7,37,63.74s8.85,0,8.85,0,.49-7.15,34.25-8,41,4.65,38.22,10.83-5.06,9.69-3,16.48-.14,24-3.1,25.54c0,0-4.53-1.2-5.73-11.44S104.52,79.44,88.89,78.6,63.44,77.4,59.23,80Z" transform="translate(0 -6.71)"/><g class="m"><polygon class="n" points="57.93 144.83 57.93 38.05 24 38.05 24 137.74 57.93 144.83"/><polygon class="n" points="76.2 247.81 76.2 141.81 34.97 141.02 34.97 240.71 76.2 247.81"/></g></g><polygon class="o" points="301.64 362.11 89.41 374.27 8.04 214.89 301.64 157.01 301.64 362.11"/><path class="p" d="M70.84,262.73H57.48l-2.36,6.13H43.06l15.37-35.17H70.09l15.37,35.17H73.2Zm-3.27-8.54-3.42-8.84-3.42,8.84Z" transform="translate(0 -6.71)"/><path class="p" d="M90.58,268.61a19.88,19.88,0,0,1-5.53-2l3.11-7.49A16.34,16.34,0,0,0,92.69,261a20.88,20.88,0,0,0,5.07.65,7.91,7.91,0,0,0,2.74-.33,1.06,1.06,0,0,0,.78-1q0-.65-1-.9a26.5,26.5,0,0,0-3.19-.5,42.1,42.1,0,0,1-5.73-1,9,9,0,0,1-4.14-2.44,7.06,7.06,0,0,1-1.78-5.17,7.67,7.67,0,0,1,1.61-4.77,10.83,10.83,0,0,1,4.8-3.37,20.92,20.92,0,0,1,7.66-1.26,32.21,32.21,0,0,1,6.1.58,18.64,18.64,0,0,1,5.1,1.68l-3.11,7.49a16.07,16.07,0,0,0-7.94-2q-3.72,0-3.72,1.31,0,.65,1,.93a23.1,23.1,0,0,0,3.16.53,38.56,38.56,0,0,1,5.7,1.06,9.19,9.19,0,0,1,4.12,2.46,7.06,7.06,0,0,1,1.78,5.17,7.53,7.53,0,0,1-1.61,4.67,10.82,10.82,0,0,1-4.82,3.37,21.45,21.45,0,0,1-7.79,1.26A32.11,32.11,0,0,1,90.58,268.61Z" transform="translate(0 -6.71)"/><path class="p" d="M144.23,257.76H125.14a4.62,4.62,0,0,0,2,2.39,6.83,6.83,0,0,0,3.52.83,8.9,8.9,0,0,0,3-.45A10.67,10.67,0,0,0,136.4,259l5.93,6q-4,4.42-12,4.42a19.75,19.75,0,0,1-8.74-1.83,13.88,13.88,0,0,1-5.83-5.1,14.21,14.21,0,0,1,0-14.69,13.9,13.9,0,0,1,5.58-5,18.37,18.37,0,0,1,15.57-.15,13.07,13.07,0,0,1,5.48,4.87,14.08,14.08,0,0,1,2,7.69Q144.38,255.35,144.23,257.76Zm-17.78-8.19a4.53,4.53,0,0,0-1.51,2.71h8.84a4.62,4.62,0,0,0-1.51-2.69,4.35,4.35,0,0,0-2.91-1A4.42,4.42,0,0,0,126.45,249.57Z" transform="translate(0 -6.71)"/><path class="p" d="M151.77,268.61a19.88,19.88,0,0,1-5.53-2l3.11-7.49a16.34,16.34,0,0,0,4.52,1.81,20.88,20.88,0,0,0,5.07.65,7.91,7.91,0,0,0,2.74-.33,1.06,1.06,0,0,0,.78-1q0-.65-1-.9a26.5,26.5,0,0,0-3.19-.5,42.1,42.1,0,0,1-5.73-1,9,9,0,0,1-4.14-2.44,7.06,7.06,0,0,1-1.78-5.17,7.67,7.67,0,0,1,1.61-4.77,10.83,10.83,0,0,1,4.8-3.37,20.92,20.92,0,0,1,7.66-1.26,32.21,32.21,0,0,1,6.1.58,18.65,18.65,0,0,1,5.1,1.68l-3.12,7.49a16.07,16.07,0,0,0-7.94-2q-3.72,0-3.72,1.31,0,.65,1,.93a23.1,23.1,0,0,0,3.16.53,38.56,38.56,0,0,1,5.7,1.06,9.2,9.2,0,0,1,4.12,2.46,7.07,7.07,0,0,1,1.78,5.17,7.53,7.53,0,0,1-1.61,4.67,10.83,10.83,0,0,1-4.82,3.37,21.45,21.45,0,0,1-7.79,1.26A32.11,32.11,0,0,1,151.77,268.61Z" transform="translate(0 -6.71)"/><path class="p" d="M182.64,267.53a14.11,14.11,0,0,1-5.7-5.07,14.18,14.18,0,0,1,0-14.72,13.93,13.93,0,0,1,5.7-5,19.67,19.67,0,0,1,16.48,0,13.76,13.76,0,0,1,5.68,5,14.33,14.33,0,0,1,0,14.72,13.94,13.94,0,0,1-5.68,5.07,19.43,19.43,0,0,1-16.48,0Zm11.43-8.44a5.86,5.86,0,0,0,1.26-4,5.76,5.76,0,0,0-1.26-4,4.38,4.38,0,0,0-6.43,0,5.76,5.76,0,0,0-1.26,4,5.86,5.86,0,0,0,1.26,4,4.33,4.33,0,0,0,6.43,0Z" transform="translate(0 -6.71)"/><path class="p" d="M230.09,240.88v10a17.38,17.38,0,0,0-2.51-.2q-5.83,0-5.83,5.93v12.21H210.39V241.38h10.8v3Q224.21,240.88,230.09,240.88Z" transform="translate(0 -6.71)"/><path class="p" d="M262.14,257.76H243a4.62,4.62,0,0,0,2,2.39,6.83,6.83,0,0,0,3.52.83,8.9,8.9,0,0,0,3-.45A10.67,10.67,0,0,0,254.3,259l5.93,6q-4,4.42-12,4.42a19.74,19.74,0,0,1-8.74-1.83,13.88,13.88,0,0,1-5.83-5.1,14.2,14.2,0,0,1,0-14.69,13.9,13.9,0,0,1,5.58-5,18.37,18.37,0,0,1,15.57-.15,13.08,13.08,0,0,1,5.48,4.87,14.08,14.08,0,0,1,2,7.69Q262.29,255.35,262.14,257.76Zm-17.78-8.19a4.53,4.53,0,0,0-1.51,2.71h8.84a4.62,4.62,0,0,0-1.51-2.69,4.35,4.35,0,0,0-2.91-1A4.42,4.42,0,0,0,244.35,249.57Z" transform="translate(0 -6.71)"/><path class="p" d="M269.67,268.61a19.87,19.87,0,0,1-5.53-2l3.11-7.49a16.35,16.35,0,0,0,4.52,1.81,20.88,20.88,0,0,0,5.07.65,7.91,7.91,0,0,0,2.74-.33,1.06,1.06,0,0,0,.78-1q0-.65-1-.9a26.53,26.53,0,0,0-3.19-.5,42.06,42.06,0,0,1-5.73-1,9,9,0,0,1-4.14-2.44,7.06,7.06,0,0,1-1.78-5.17,7.67,7.67,0,0,1,1.61-4.77,10.83,10.83,0,0,1,4.8-3.37,20.93,20.93,0,0,1,7.66-1.26,32.22,32.22,0,0,1,6.1.58,18.65,18.65,0,0,1,5.1,1.68l-3.12,7.49a16.06,16.06,0,0,0-7.94-2q-3.72,0-3.72,1.31,0,.65,1,.93a23.09,23.09,0,0,0,3.17.53,38.53,38.53,0,0,1,5.7,1.06,9.2,9.2,0,0,1,4.12,2.46,7.07,7.07,0,0,1,1.78,5.17,7.53,7.53,0,0,1-1.61,4.67,10.83,10.83,0,0,1-4.82,3.37,21.45,21.45,0,0,1-7.79,1.26A32.1,32.1,0,0,1,269.67,268.61Z" transform="translate(0 -6.71)"/><path class="k" d="M86.4,296.28H70.19V281.82h51.06v14.46H105v40.86H86.4Z" transform="translate(0 -6.71)"/><path class="k" d="M126.07,281.82h18.65v55.32H126.07Z" transform="translate(0 -6.71)"/><path class="k" d="M193.72,284.35a19.93,19.93,0,0,1,0,36.67,32.65,32.65,0,0,1-13.36,2.53h-8v13.59H153.73V281.82h26.63A32.65,32.65,0,0,1,193.72,284.35Zm-8.85,23.12a7,7,0,0,0,0-9.56q-1.9-1.7-5.69-1.7h-6.8v13h6.8Q183,309.16,184.87,307.47Z" transform="translate(0 -6.71)"/><path class="k" d="M219.69,336.87A35.92,35.92,0,0,1,209,332.72l6-13.59a38.2,38.2,0,0,0,8.85,3.67,34.61,34.61,0,0,0,9.41,1.38,14.55,14.55,0,0,0,5.53-.75,2.41,2.41,0,0,0,1.66-2.25q0-1.74-2.17-2.61a46.77,46.77,0,0,0-7.15-1.9,81.13,81.13,0,0,1-10.67-2.88,18.18,18.18,0,0,1-7.43-5.06q-3.16-3.52-3.16-9.52a16.4,16.4,0,0,1,2.92-9.48A19.31,19.31,0,0,1,221.5,283a36.28,36.28,0,0,1,14.11-2.45,51.25,51.25,0,0,1,11.18,1.22,35.06,35.06,0,0,1,9.68,3.6l-5.61,13.51a34.31,34.31,0,0,0-15.41-4.11q-7.19,0-7.19,3.48,0,1.66,2.13,2.49a45.26,45.26,0,0,0,7,1.78,72.32,72.32,0,0,1,10.67,2.73,18.57,18.57,0,0,1,7.55,5q3.2,3.48,3.2,9.48a16.23,16.23,0,0,1-2.92,9.44,19.69,19.69,0,0,1-8.73,6.72,35.78,35.78,0,0,1-14.11,2.49A58.05,58.05,0,0,1,219.69,336.87Z" transform="translate(0 -6.71)"/><path class="k" d="M261.61,281.82H283L279.4,316H265.17Zm3.16,53.35a8.9,8.9,0,0,1-2.92-6.72,8.62,8.62,0,0,1,2.92-6.68,12,12,0,0,1,15,0,8.63,8.63,0,0,1,2.92,6.68,8.91,8.91,0,0,1-2.92,6.72,11.57,11.57,0,0,1-15,0Z" transform="translate(0 -6.71)"/><path class="h" d="M217.76,158.89l-37.21,16.26a6.38,6.38,0,0,1-8.4-3.29L165,155.53s-3.7-11.33,3.55-14.5l14.76-6.45,2.4,3.31L196.24,147Z" transform="translate(0 -6.71)"/><path class="g" d="M170.07,124.17l25.24,39.36a11.06,11.06,0,0,0,13.74,4.16L222,162c9.08-4-23.37-16.12-21.3-20.3s1.09-15.36-8.67-16.25-4.83-11.06-4.83-11.06Z" transform="translate(0 -6.71)"/><g class="q"><polygon class="r" points="200.7 135.03 186.55 151.66 174.08 126.64 193.49 110.65 208 123.3 200.7 135.03"/></g><circle class="r" cx="144.8" cy="114.81" r="7.17" transform="translate(-33.86 60.88) rotate(-23.61)"/><path class="g" d="M145,115c-.3-.62-.59-1.23-.86-1.83l.17-.07c-4.2-12.65-3.75-31,23.22-40.35,28.69-9.92,59.56-42.88,59.56-42.88l20.8,38,.33-.14.64,1.92,1,1.78-.33.15,13.73,41.05s-45.16.27-71.93,14.59c-25.17,13.46-39,1.31-45.39-10.36l-.17.07C145.46,116.31,145.21,115.69,145,115Z" transform="translate(0 -6.71)"/><path class="r" d="M275.93,119.31h0a9,9,0,0,1-11.82-4.63L225.16,25.56a9,9,0,0,1,4.63-11.82h0a9,9,0,0,1,11.82,4.63l38.95,89.12A9,9,0,0,1,275.93,119.31Z" transform="translate(0 -6.71)"/><path class="h" d="M212,140.09l-20.19,8.82a3.26,3.26,0,0,1-4.29-1.68h0a3.26,3.26,0,0,1,1.68-4.29l20.19-8.82a3.26,3.26,0,0,1,4.29,1.68h0A3.26,3.26,0,0,1,212,140.09Z" transform="translate(0 -6.71)"/><path class="h" d="M214.61,146.06l-22.52,9.84a3.26,3.26,0,0,1-4.29-1.68h0a3.26,3.26,0,0,1,1.68-4.29L212,140.09a3.26,3.26,0,0,1,4.29,1.68h0A3.26,3.26,0,0,1,214.61,146.06Z" transform="translate(0 -6.71)"/><g class="s"><path class="t" d="M191.81,148.91c3.22-1.79,6.56-3.33,9.92-4.82s6.77-2.86,10.27-4c-3.22,1.79-6.56,3.34-9.92,4.82S195.32,147.76,191.81,148.91Z" transform="translate(0 -6.71)"/></g><path class="h" d="M217.21,152,197,160.85a3.26,3.26,0,0,1-4.29-1.68h0a3.26,3.26,0,0,1,1.68-4.29l20.19-8.82a3.26,3.26,0,0,1,4.29,1.68h0A3.26,3.26,0,0,1,217.21,152Z" transform="translate(0 -6.71)"/><g class="s"><path class="t" d="M194.42,154.88c3.23-1.79,6.56-3.33,9.92-4.82s6.77-2.86,10.27-4c-3.22,1.79-6.56,3.34-9.92,4.82S197.92,153.73,194.42,154.88Z" transform="translate(0 -6.71)"/></g><rect class="h" x="197.27" y="155.51" width="25.29" height="6.51" rx="3.06" ry="3.06" transform="translate(-46.01 90.64) rotate(-23.61)"/><g class="s"><path class="t" d="M197,160.85c3.22-1.79,6.56-3.33,9.92-4.82s6.77-2.86,10.27-4c-3.22,1.79-6.56,3.34-9.92,4.82S200.53,159.7,197,160.85Z" transform="translate(0 -6.71)"/></g><path class="g" d="M191,143.21l1.73,4s-3.18,1.58-4.11-.56S191,143.21,191,143.21Z" transform="translate(0 -6.71)"/><path class="g" d="M192,150l1.73,4s-3.18,1.58-4.11-.56S192,150,192,150Z" transform="translate(0 -6.71)"/><path class="g" d="M196.3,155.41l1.73,4s-3.18,1.58-4.11-.56S196.3,155.41,196.3,155.41Z" transform="translate(0 -6.71)"/><path class="g" d="M202.22,160.09l1.73,4s-3.18,1.58-4.11-.56S202.22,160.09,202.22,160.09Z" transform="translate(0 -6.71)"/><path class="h" d="M189.67,140.51,179,145.18a4,4,0,0,1-5.25-2.06h0a4,4,0,0,1,2.06-5.25l10.67-4.66a4,4,0,0,1,5.25,2.06h0A4,4,0,0,1,189.67,140.51Z" transform="translate(0 -6.71)"/><path class="g" d="M183.33,134.58l1.48,3.38,3.93-1.72c1.49-.65-.3-3.72-1.92-3.19Z" transform="translate(0 -6.71)"/><path class="r" d="M212.49,119.23a108.32,108.32,0,0,0-17.23,6l-23.62-54a108.32,108.32,0,0,0,16.11-8.56Z" transform="translate(0 -6.71)"/><path class="r" d="M186.85,129.36c-6.67,2.93-12.47,4-17.49,3.71L148.31,84.89c3.21-3.86,7.91-7.41,14.6-10.31Z" transform="translate(0 -6.71)"/><path class="c" d="M268.82,80.62,157.32,129.35a33.38,33.38,0,0,1-11.43-12.51l-.17.07c-.26-.6-.52-1.23-.76-1.87s-.59-1.23-.86-1.83l.17-.07a37.8,37.8,0,0,1-1.87-9.21L257.11,53.8Z" transform="translate(0 -6.71)"/><path class="c" d="M280.57,107.48a9,9,0,1,1-16.46,7.19l-.9-2.06s-45.16.27-71.93,14.59c-15.16,8.11-26.18,6.92-34,2.14L268.82,80.62Z" transform="translate(0 -6.71)"/><path class="c" d="M280.57,107.48a9,9,0,1,1-16.46,7.19l-.9-2.06s-45.16.27-71.93,14.59c-15.16,8.11-26.18,6.92-34,2.14L268.82,80.62Z" transform="translate(0 -6.71)"/><line class="u" x1="266.78" y1="22.97" x2="282.62" y2="3.42"/><line class="u" x1="274.86" y1="41.61" x2="300.17" y2="31.84"/><line class="u" x1="288.89" y1="83.43" x2="313.04" y2="90.47"/><line class="u" x1="284.91" y1="63.5" x2="311.28" y2="57.12"/><path class="v" d="M182.74,143.94,179,145.18s7.39,8.9,0,17.18" transform="translate(0 -6.71)"/><path class="k" d="M70.34,102.34h-7a1.88,1.88,0,0,1-1.87-1.87h0a1.88,1.88,0,0,1,1.88-1.87h7a1.88,1.88,0,0,1,1.88,1.88h0A1.88,1.88,0,0,1,70.34,102.34Z" transform="translate(0 -6.71)"/><path class="k" d="M95.59,102.34h-7a1.88,1.88,0,0,1-1.87-1.87h0a1.88,1.88,0,0,1,1.88-1.87h7a1.88,1.88,0,0,1,1.88,1.88h0A1.88,1.88,0,0,1,95.59,102.34Z" transform="translate(0 -6.71)"/></g></svg>