<svg xmlns="http://www.w3.org/2000/svg" viewBox="0 0 208.45 74.77"><defs><style>.a{fill:#d8d9dd;fill-opacity:0.23;fill-rule:evenodd;}.b{fill:#fff;}</style></defs><title>logo-blanco</title><path class="a" d="M48.52,64.63Q46,63.56,43.74,62.39A5.35,5.35,0,0,0,44,60.85V53.11c.36,0,.72,0,.93,0l1.15,0,.71,0v7.72a4.51,4.51,0,0,0,1.77,3.78m110,.61c-14.4,5.92-33.41,9.52-54.25,9.52-20.61,0-39.42-3.52-53.76-9.32a5.92,5.92,0,0,0,1.06.09,8.37,8.37,0,0,0,3-.41l0,0,0,0a4.41,4.41,0,0,0,2.6-4.25V53.11h0l.8,0,1,0,.88,0v7.75a4.4,4.4,0,0,0,2.64,4.26h.06a8.37,8.37,0,0,0,3,.41,4.55,4.55,0,0,0,4-2.07,10.48,10.48,0,0,0,1.29.71,16.07,16.07,0,0,0,6.76,1.36h5.78A15.88,15.88,0,0,0,90,64.32h0a8.56,8.56,0,0,0,3-2.15,10.37,10.37,0,0,0,3,1.93,16.78,16.78,0,0,0,6.88,1.44h5.34c2.78,0,6-.36,8.41-1.95a4.15,4.15,0,0,0,1.82,1.49,7.88,7.88,0,0,0,3,.45,5,5,0,0,0,2.93-.86,4.34,4.34,0,0,0,.76.42h.05a8.17,8.17,0,0,0,3,.42,5.09,5.09,0,0,0,2.74-.74,4.44,4.44,0,0,0,.54.28h0a7.87,7.87,0,0,0,3,.45,4.54,4.54,0,0,0,4.18-2.27,10.48,10.48,0,0,0,1.69,1,14.81,14.81,0,0,0,6.16,1.3H155A19.41,19.41,0,0,0,158.48,65.24Zm16.07-9q-1.3,1-2.73,2V53.12h2a6.08,6.08,0,0,0,.7,0ZM104.22,0c24.41,0,46.31,4.94,61.23,12.76H76.22a5,5,0,0,0-3.85,1.58,8.57,8.57,0,0,0-3.67-1.66L51.29,9C65.52,3.39,84,0,104.22,0Z"/><path class="b" d="M.79,13.72,22.24,6.26A3.4,3.4,0,0,1,24,6.13L68.1,15.47c2.83.6,3.86,2.13,2.23,3.36s-5,1.59-7.56.93l-40-10.17L1.71,16a1.35,1.35,0,0,1-1.62-.74,1.12,1.12,0,0,1,.7-1.49"/><path class="b" d="M203.73,54.66H192q-3.13,0-3.13,1.06v1.93q0,1,3.23,1h8.63q2.57,0,2.9-.77a15,15,0,0,0,.1-3.26m4.71,2.87q0,5.17-7.74,5.17h-8.5a11.92,11.92,0,0,1-5-1q-3.06-1.4-3.07-4V55.75a4.37,4.37,0,0,1,2.92-4.12,11.85,11.85,0,0,1,5-1h11.06a8,8,0,0,0-2.7-.37h-2.79q-1.91,0-1.91-1.83v-.33a1.66,1.66,0,0,1,1.91-1.85,26.61,26.61,0,0,1,6.82.63q4,1.18,4,4.65Zm-26.36,3.32q0,1.85-1.91,1.85a5.47,5.47,0,0,1-1.9-.22,1.58,1.58,0,0,1-.89-1.62V49.32a1.69,1.69,0,0,1,.64-1.45A2,2,0,0,1,176.81,46a1.87,1.87,0,0,1,.91-1.63,3.43,3.43,0,0,1,2-.54,3.48,3.48,0,0,1,2,.54,1.87,1.87,0,0,1,.91,1.63,1.92,1.92,0,0,1-1.14,1.79,1.65,1.65,0,0,1,.65,1.49Zm-6.31-12.41c0,1.22-.65,1.83-1.93,1.83h-1.48q-3.39,0-3.39,1.32v9.26a1.56,1.56,0,0,1-.9,1.64,5.91,5.91,0,0,1-1.93.21,1.65,1.65,0,0,1-1.88-1.86V51.58q0-5.32,9.59-5.31C175.13,46.27,175.78,47,175.78,48.44ZM158,54.66H146.27q-3.13,0-3.13,1.06v1.93q0,1,3.23,1H155q2.57,0,2.9-.77A15.05,15.05,0,0,0,158,54.66Zm4.71,2.87q0,5.17-7.74,5.17h-8.5a11.92,11.92,0,0,1-5-1q-3.06-1.4-3.07-4V55.75a4.37,4.37,0,0,1,2.92-4.12,11.85,11.85,0,0,1,5-1H157.4a8,8,0,0,0-2.7-.37h-2.79q-1.91,0-1.91-1.83v-.33a1.66,1.66,0,0,1,1.91-1.85,26.62,26.62,0,0,1,6.82.63q4,1.18,4,4.65Zm-26.36,3.32q0,1.85-1.91,1.85a5.47,5.47,0,0,1-1.9-.22,1.58,1.58,0,0,1-.89-1.62V49.32a1.69,1.69,0,0,1,.64-1.45A2,2,0,0,1,131.07,46a1.87,1.87,0,0,1,.91-1.63,3.43,3.43,0,0,1,2-.54,3.48,3.48,0,0,1,2,.54,1.87,1.87,0,0,1,.91,1.63,1.92,1.92,0,0,1-1.14,1.79,1.65,1.65,0,0,1,.65,1.49Zm-6.31,0q0,1.85-1.91,1.85a5.86,5.86,0,0,1-1.91-.21,1.59,1.59,0,0,1-.89-1.64V44a1.65,1.65,0,0,1,1.9-1.85,5.85,5.85,0,0,1,1.91.21A1.59,1.59,0,0,1,130,44Zm-6.72,0q0,1.85-1.91,1.85a5.47,5.47,0,0,1-1.9-.22,1.58,1.58,0,0,1-.89-1.62V49.32a1.69,1.69,0,0,1,.64-1.45A2,2,0,0,1,118,46a1.87,1.87,0,0,1,.91-1.63,3.43,3.43,0,0,1,2-.54,3.48,3.48,0,0,1,2,.54,1.87,1.87,0,0,1,.91,1.63,1.92,1.92,0,0,1-1.14,1.79,1.65,1.65,0,0,1,.65,1.49Zm-11-3.66V51.77c0-.65-.55-1.06-1.65-1.25a17.1,17.1,0,0,0-2.42-.11H98.4v7q0,1.32,4.83,1.32h5c1.41,0,2.24,0,2.51-.07C111.76,58.45,112.29,58,112.29,57.19Zm4.71.11q0,5.39-8.85,5.39h-5.34a13.91,13.91,0,0,1-5.73-1.19q-3.4-1.49-3.4-4.11V44a1.6,1.6,0,0,1,.91-1.66,5.86,5.86,0,0,1,1.91-.21A1.66,1.66,0,0,1,98.4,44v2.37h9.76a14.43,14.43,0,0,1,5.75,1A4.52,4.52,0,0,1,117,51.7Zm-30,.07V51.5c0-.6-.49-1-1.47-1.13a15.32,15.32,0,0,0-2.19-.1H77.74q-4,0-4,1.48v5.62q0,1.32,4,1.32h5.65Q87,58.69,87,57.37Zm4.78,0a4.55,4.55,0,0,1-3,4.36,13,13,0,0,1-5.31,1H77.71a13.2,13.2,0,0,1-5.57-1.1Q69,60.17,69,57.37V51.75q0-2.92,3.23-4.41a13.07,13.07,0,0,1,5.42-1.08h5.8q8.34,0,8.34,5.45ZM67.5,60.85a1.65,1.65,0,0,1-1.9,1.85,6,6,0,0,1-1.93-.21,1.59,1.59,0,0,1-.91-1.64v-9.4q0-1.21-3.72-1.21l-1.11,0-.73,0a6.4,6.4,0,0,0-1.93.21,1.36,1.36,0,0,0-.94,1.4v9a1.59,1.59,0,0,1-.89,1.64,6,6,0,0,1-1.93.21q-1.93,0-1.93-1.85v-9a1.32,1.32,0,0,0-.85-1.38A5.44,5.44,0,0,0,47,50.29l-.83,0-1.25,0q-3.77,0-3.77,1.25v9.36a1.59,1.59,0,0,1-.91,1.64,5.86,5.86,0,0,1-1.91.21,1.65,1.65,0,0,1-1.9-1.85v-9q0-5.57,8.19-5.57,3.11,0,3.84.07a9.81,9.81,0,0,1,3.64,1.13,10,10,0,0,1,3.67-1.1c.65-.07,1.93-.1,3.86-.1q7.9,0,7.91,5.57Zm-32.62,0q0,1.85-1.93,1.85A5.86,5.86,0,0,1,31,62.49a1.59,1.59,0,0,1-.91-1.64v-9.7q0-.87-3.77-.87H20.7q-3.89,0-3.89.89v9.69q0,1.85-1.91,1.85A5.86,5.86,0,0,1,13,62.49a1.59,1.59,0,0,1-.89-1.64V51.19q0-4.93,8.58-4.93h5.69a15,15,0,0,1,5.49.86q3,1.23,3,4Zm-24.8,0q0,1.85-1.91,1.85a5.47,5.47,0,0,1-1.9-.22,1.58,1.58,0,0,1-.89-1.62V49.32A1.69,1.69,0,0,1,6,47.87,2,2,0,0,1,4.82,46a1.87,1.87,0,0,1,.91-1.63,3.43,3.43,0,0,1,2-.54,3.48,3.48,0,0,1,2,.54A1.87,1.87,0,0,1,10.58,46a1.92,1.92,0,0,1-1.14,1.79,1.65,1.65,0,0,1,.65,1.49Z"/><path class="b" d="M27.34,24.81v-3c0-.68-.63-1.09-1.9-1.22-.13,0-1,0-2.69,0H9.17v6.27H22.77a14.87,14.87,0,0,0,2.89-.18c1.12-.27,1.68-.88,1.68-1.84m5.39.13A5.59,5.59,0,0,1,29,30.35a16,16,0,0,1-6.49,1.15H9.17v8.77A1.81,1.81,0,0,1,8.1,42.18a7.79,7.79,0,0,1-2.24.2,1.86,1.86,0,0,1-2.1-2.11V18a1.86,1.86,0,0,1,2.1-2.11H22.71A16.3,16.3,0,0,1,28.94,17q3.79,1.55,3.79,4.46Z"/><path class="b" d="M47.18,26.46c0,1.36-.72,2-2.13,2H43.41q-3.75,0-3.75,1.47V40.32a1.75,1.75,0,0,1-1,1.83,6.47,6.47,0,0,1-2.13.23,1.83,1.83,0,0,1-2.08-2.08V30Q34.45,24,45,24c1.42,0,2.13.81,2.13,2.43"/><path class="b" d="M68.61,31.13V29.7c0-.46-.49-.78-1.46-.94-.38-.06-1.42-.14-3.13-.25H58.53c-1.59,0-2.58,0-3,.07-1.44.16-2.15.58-2.15,1.25v1.3Zm5.1,2.36A2.61,2.61,0,0,1,73.28,35a1.53,1.53,0,0,1-1.31.76H53.56c.21,1.49,1.91,2.22,5.11,2.22h2c1.41,0,2.11.8,2.11,2.39a1.84,1.84,0,0,1-2.11,2q-3.88,0-5.25-.14a9.78,9.78,0,0,1-4.86-1.56,5.36,5.36,0,0,1-2.39-4.33V30.07q0-3.22,3.53-4.83A15.18,15.18,0,0,1,58.1,24h7.18a12.81,12.81,0,0,1,5.29,1q3.15,1.44,3.15,4.35Z"/><path class="b" d="M98.77,36.86q0,5.52-8.29,5.52h-13a1.84,1.84,0,0,1-2.1-2.06q0-2.41,2.1-2.41h13c1.09,0,1.7,0,1.82,0,.74-.12,1.11-.46,1.11-1v-.64c0-.59-.87-.89-2.61-.89H84.58q-9.29,0-9.29-5.35v-.93c0-2.34,1.5-3.87,4.5-4.57a38.35,38.35,0,0,1,7.3-.46q2.14,0,2.13,2.06v.37q0,2-2.13,2H84.33q-3.82,0-3.82.55v.89q0,.85,4.1.85H91a11.62,11.62,0,0,1,5,1,4.51,4.51,0,0,1,2.77,4.32Z"/><path class="b" d="M120.79,31.13V29.7c0-.46-.49-.78-1.46-.94-.38-.06-1.42-.14-3.13-.25h-5.49c-1.59,0-2.58,0-3,.07-1.44.16-2.15.58-2.15,1.25v1.3Zm5.1,2.36a2.61,2.61,0,0,1-.44,1.46,1.53,1.53,0,0,1-1.31.76H105.73c.21,1.49,1.91,2.22,5.11,2.22h2c1.41,0,2.11.8,2.11,2.39a1.84,1.84,0,0,1-2.11,2q-3.88,0-5.25-.14a9.78,9.78,0,0,1-4.86-1.56,5.36,5.36,0,0,1-2.39-4.33V30.07q0-3.22,3.53-4.83A15.18,15.18,0,0,1,110.27,24h7.18a12.81,12.81,0,0,1,5.29,1q3.15,1.44,3.15,4.35Z"/><path class="b" d="M152.77,40.32q0,2.06-2.13,2.06a6.42,6.42,0,0,1-2.11-.23,1.78,1.78,0,0,1-1-1.83V29.48q0-1-4.17-1h-6.27q-4.3,0-4.3,1V40.32a1.84,1.84,0,0,1-2.11,2.06,6.41,6.41,0,0,1-2.11-.23,1.78,1.78,0,0,1-1-1.83V29.53q0-5.5,9.49-5.5h6.29a16.4,16.4,0,0,1,6.07,1q3.35,1.37,3.35,4.52Z"/><path class="b" d="M203.24,33.41h-13q-3.46,0-3.46,1.19v2.15q0,1.15,3.57,1.16h9.55q2.85,0,3.21-.85a17,17,0,0,0,.11-3.64m5.21,3.2q0,5.77-8.56,5.77h-9.4a13.07,13.07,0,0,1-5.5-1.17q-3.39-1.56-3.39-4.43V34.62q0-3.09,3.23-4.6a13,13,0,0,1,5.53-1.1h12.23a8.73,8.73,0,0,0-3-.41h-3.08a1.83,1.83,0,0,1-2.11-2v-.37A1.84,1.84,0,0,1,196.51,24a29.14,29.14,0,0,1,7.54.71q4.39,1.32,4.39,5.19Z"/><path class="b" d="M182.88,20.08H76.23a1.91,1.91,0,0,1-1.55-.82,2.7,2.7,0,0,1-.59-1.7q0-2,2.13-2H189.1a3.54,3.54,0,0,1,2.22.82,2.47,2.47,0,0,1,1.1,1.93,2.47,2.47,0,0,1-1.39,2C182,26.25,173,32.12,163.84,37.91h13.81a2,2,0,0,1,1.59.82,2.66,2.66,0,0,1,.6,1.7q0,2-2.18,2h-20.2a3.69,3.69,0,0,1-2.28-.82,2.18,2.18,0,0,1,.29-4Z"/></svg>